# xmcd CD database file
#
# Track frame offsets:
#	150
#	19327
#	35704
#	56064
#	70478
#	79006
#	96676
#	117538
#	122950
#	137104
#	161763
#	172820
#	184643
#	203918
#
# Disc length: 2882 seconds
#
# Revision: 0
# Processed by: cddbd v1.5.2PL0 Copyright (c) Steve Scherf et al.
# Submitted via: CDex 1.78
#
DISCID=d40b400e
DTITLE=Good Co - Electro Swing for the Masses
DYEAR=2012
DGENRE=Jazz
TTITLE0=Tumbling Down
TTITLE1=Postage
TTITLE2=Jazz Player
TTITLE3=One Of These Mornings
TTITLE4=Good Advice
TTITLE5=Nobody But Me
TTITLE6=East St Louis
TTITLE7=Carnival
TTITLE8=Swing It Brother
TTITLE9=WSD
TTITLE10=Comes Love
TTITLE11=St James (featuring Abney Park)
TTITLE12=Zebra Donkey
TTITLE13=Good Company (featuring The Honeyville Rascals)
EXTD=YEAR: 2012
EXTT0=
EXTT1=
EXTT2=
EXTT3=
EXTT4=
EXTT5=
EXTT6=
EXTT7=
EXTT8=
EXTT9=
EXTT10=
EXTT11=
EXTT12=
EXTT13=
PLAYORDER=
